<?xml version="1.0" encoding="UTF-8"?>
<svg viewBox="0 0 199.99948 131.47299" xmlns="http://www.w3.org/2000/svg" xmlns:xlink="http://www.w3.org/1999/xlink">
 <defs>
  <filter id="h" x="-.05824" y="-.14327" width="1.1165" height="1.2865">
   <feGaussianBlur stdDeviation="25.12637"/>
  </filter>
  <filter id="g" x="-.13306" y="-.17316" width="1.2661" height="1.3463">
   <feGaussianBlur stdDeviation="9.099"/>
  </filter>
  <filter id="f" x="-.08558" y="-.11218" width="1.1712" height="1.2244">
   <feGaussianBlur stdDeviation="8.15662"/>
  </filter>
  <linearGradient id="a">
   <stop stop-color="#e6ddc7" offset="0"/>
   <stop stop-color="#beb08b" offset="1"/>
  </linearGradient>
  <linearGradient id="e" x1="186.39" x2="762.92" y1="354" y2="640.43" gradientUnits="userSpaceOnUse" xlink:href="#a"/>
  <linearGradient id="d" x1="357.14" x2="616.92" y1="102.5" y2="276.31" gradientTransform="matrix(1 0 0 -1 5.7798e-8 726.89)" gradientUnits="userSpaceOnUse" xlink:href="#a"/>
  <linearGradient id="c" x1="357.14" x2="616.92" y1="102.5" y2="276.31" gradientUnits="userSpaceOnUse" xlink:href="#a"/>
  <radialGradient id="b" cx="312.98" cy="387.27" r="95.314" gradientTransform="matrix(1.2494 .87307 -.61924 .88613 161.76 -221.34)" gradientUnits="userSpaceOnUse">
   <stop stop-color="#ff6262" offset="0"/>
   <stop stop-color="#a00" offset=".26667"/>
   <stop stop-color="#4c0000" offset="1"/>
  </radialGradient>
 </defs>
 <g transform="matrix(.23009 0 0 .23009 17.826 -17.887)">
  <path d="m-20 80.934h754.29a54.286 54.286 0 0 1 54.286 54.286v457.14a54.286 54.286 0 0 1 -54.286 54.286h-754.29a54.286 54.286 0 0 1 -54.286 -54.286v-457.14a54.286 54.286 0 0 1 54.286 -54.286" fill="url(#e)" stroke="#947f29" stroke-linecap="round" stroke-linejoin="round" stroke-width="5"/>
  <path d="m-20 645.95c-30.074 0-54.281-24.207-54.281-54.281v-41.781l399.28-244c23.347-14.267 60.934-14.267 84.281 0l379.28 231.78v54c0 30.074-24.207 54.281-54.281 54.281h-754.28z" fill="url(#d)" stroke="#947f29" stroke-linecap="round" stroke-linejoin="round" stroke-width="3"/>
  <path d="m-27.767 157.25-46.514 19.748 399.28 244c23.347 14.267 60.934 14.267 84.281 0l379.28-231.78-57.531-16.054c-192.51-72.425-564.38-82.434-758.8-15.913z" filter="url(#h)"/>
  <path d="m-20 80.938c-30.074 0-54.281 24.207-54.281 54.281v41.781l399.28 244c23.347 14.267 60.934 14.267 84.281 0l379.28-231.78v-54c0-30.074-24.207-54.281-54.281-54.281h-754.28z" fill="url(#c)" stroke="#947f29" stroke-linecap="round" stroke-linejoin="round" stroke-width="6.3908"/>
  <path d="m308.87 398.1c-2.8141-18.24-2.6517-37.629 20.119-42.448 14.773-3.1264 20.255 8.5856 31.263 14.736 14.567 8.1388 23.003-14.855 35.515-17.531 17.217-3.682 16.884 22.427 21.259 33.537 4.6825 11.892 30.737 9.9423 40.267 20.834 14.224 16.256-10.697 32.131-14.256 43.7-7.3097 23.762 6.2402 33.667-26.261 41.921-17.211 4.371-38.409-10.364-55.523-14.228-22.659-5.1151-29.311 19.309-51.771 19.309-31.355 0-8.3676-41.134-11.255-54.624-3.2172-15.034-39.667-12.672-22.759-33.283 11.12-13.555 28.055-0.60206 33.404-11.922z" fill-rule="evenodd" filter="url(#f)"/>
  <path d="m303.87 393.1c-2.8141-18.24-2.6517-37.629 20.119-42.448 14.773-3.1264 20.255 8.5856 31.263 14.736 14.567 8.1388 23.003-14.855 35.515-17.531 17.217-3.682 16.884 22.427 21.259 33.537 4.6825 11.892 30.737 9.9423 40.267 20.834 14.224 16.256-10.697 32.131-14.256 43.7-7.3097 23.762 6.2402 33.667-26.261 41.921-17.211 4.371-38.409-10.364-55.523-14.228-22.659-5.1151-29.311 19.309-51.771 19.309-31.355 0-8.3676-41.134-11.255-54.624-3.2172-15.034-39.667-12.672-22.759-33.283 11.12-13.555 28.055-0.60206 33.404-11.922z" fill="url(#b)" fill-rule="evenodd"/>
  <path d="m320.11 400.62c-2.0189-13.182-1.9024-27.194 14.434-30.676 10.598-2.2594 14.532 6.2046 22.429 10.649 10.451 5.8818 16.503-10.735 25.479-12.669 12.352-2.6609 12.113 16.207 15.252 24.236 3.3594 8.594 22.051 7.1851 28.888 15.056 10.205 11.748-7.6744 23.22-10.228 31.581-5.2442 17.172 4.4769 24.33-18.84 30.295-12.348 3.1588-27.556-7.4902-39.834-10.282-16.256-3.6966-21.028 13.954-37.142 13.954-22.495 0-6.0032-29.726-8.0744-39.476-2.3081-10.865-28.458-9.1581-16.328-24.053 7.9776-9.796 20.127-0.4351 23.965-8.616z" fill="#a00" fill-rule="evenodd" filter="url(#g)"/>
  <path d="m14.285 118.56c-6.3017 6.6721-9.2794 15.5-12.045 24.059-1.4295 6.7236-1.9382 13.968-0.20855 20.62 9.8394-11.023 17.631-23.708 26.847-35.264 11.932-11.342 9.3231 4.2877 7.1472 12.619-1.412 4.7287-5.8587 18.018 1.9011 16.235 2.5224-1.9518 4.4294-4.4958 6.5277-6.8507h0.19338c-1.6576 2.4905-2.8754 5.1877-5.5491 6.8507-9.5992 3.3942-4.5459-10.805-5.039-16.235 0.60485-6.9162 6.8512-23.64-0.78638-12.619-9.1113 11.528-16.562 24.317-26.356 35.264-16.455 3.5091-10.648-8.5754-8.3923-20.62 2.8053-8.6809 5.7225-17.987 12.924-24.059h2.8355z"/>
  <path d="m40.367 151.11c3.2908-0.66731 4.5648 1.6688 6.6134 3.7235-0.38651-4.5216 5.5849-10.86 12.117-10.852 3.3688 4.8589 2.2594 2.7388 6.032 0.3286 3.572-2.6806 7.6054-4.4829 11.592-6.3894 4.0793-3.6818 8.0393-2.8421 11.055 1.5117 3.1906 2.536 5.0158 1.0009 11.528 1.9999 2.1502 7.3032 5.0756 6.0422 5.6104 6.3602 5.1261-3.1707 10.261-2.7295 14.816 0.85795h-1.2854c-8.0236-2.1753-2.8003-4.1802-9.6646-0.85795-8.3895 1.2022-10.277 1.7258-13.417-6.3602-3.6747-0.12062-7.4048-0.70852-10.847-1.9999-2.6958-4.6257 0.35253-4.8724-6.6222-1.5117-3.8805 1.6849-7.7417 3.1777-10.685 6.3894-3.9187 3.2476-9.258 4.9821-11.287-0.3286-0.0107 0.02795-4.2261 11.334-12.656 10.852-2.5374-3.1911-2.5853-2.9131-0.25248-3.7235h-2.6464z"/>
  <path d="m115.44 143.3c3.3123 2.3893 2.5418 1.1513 6.4094-0.4445 2.9921 0.41389 6.2956 0.31779 8.856 1.9204 6.8538-3.3741 12.632-2.8086 18.029 2.1552 1.1824-1.3524 9.8499-3.9832 18.007-3.3382 6.8382 5.9337 0.85496 6.2639 9.2594 0.20203 9.4991-7.6576 11.84-2.5868 13.153 6.7603 2.0301 8.6184 6.1513-0.12473 14.096-6.7866 4.5228-5.6572 10.858-7.3498 10.242 1.577 0.75973 8.3143-0.54457 10.954 3.9306 8.8482 7.6254-5.2706 11.781-12.689 21.412-11.641 0.98857 2.29 1.9269 4.6796 3.505 6.6112 4.0742-1.3859 8.3416-2.3309 12.632-2.6676 6.4736-2.9198 12.979-4.1678 19.576-0.96113 1.089 3.248 1.0065 0.18372 1.5097 0.27558h0.6049c-14.958 0.70714 3.4967 0.15066-6.3962-0.27558-5.1217-2.195-1.3787-2.3362-10.181 0.96113-12.834 0.87757-2.76-0.94138-12.708 2.6676-8.9677 1.0256-11.586 2.247-13.127-6.6112 7.7216-1.3288-9.7365 8.3952-12.395 11.641-9.4202 4.6389-14.366 0.76715-12.91-8.8482 0.698-7.464 7.0431-8.6715-1.6037-1.577-5.047 5.7667-19.843 19.594-24.711 6.7866-0.44529-9.3564 6.8265-13.624-0.80013-6.7603-6.657 4.7525-15.053 7.5005-20.507-0.20203 7.1781-1.3445-14.719 5.6893-18.082 3.3382-5.8083-5.9727 0.0883-4.4977-7.8779-2.1552-9.9672 0.64132-9.5964-0.83977-10.066-1.9204-3.5898 1.2358-9.2676 3.935-11.447 0.4445h1.5878z"/>
  <path d="m311.55 130.27c-3.6938 5.3209-5.4873 10.305-4.0993 16.153-7.2675-3.3381 10.202-7.9678 15.613-7.154-1.7956 7.0184 4.5858 15.316-1.3306 13.665 9.2762-5.5699 13.552-15.045 24.688-12.002-3.5874 6.5457 0.10991 18.837-4.6469 18.186 12.2-7.1029 21.253-18.294 32.271-26.965 15.447 0.99448 3.7346 17.071 0.67665 27.614-3.6489 17.958-2.3572 9.4236 8.2872-1.5697 13.406-13.957 25.139-29.616 39.226-42.912 14.794 0.45253 1.0051 19.027-2.6551 28.601-1.2522 10.035-9.2604 20.114-2.2716 16.572 8.0505-6.4094 11.762-7.7488 20.779-5.3513 2.6577 2.3421-1.6333 1.225 6.8306-1.9024 10.352 0.88565 11.31 1.3724 16.207 0.39509 8.9636-1.6974 18.223-0.39241 23.734-1.057 9.5056-2.6548 18.957-0.44548 28.43 0.46379 4.1557-1.1321 15.837-2.9137 22.868-3.8668 5.502-0.58936 11.02-1.0186 16.533-1.4875h0.71832c-3.8686 0.72218-7.7597 1.1691-11.684 1.4875-11.164 1.4024-22.206 4.0855-33.511 3.8668-8.3211-0.76457-10.322-2.7773-18.468-0.46379-12.662 1.6199-14.416-0.9607-23.28 1.057-3.8215 0.80527-24.368 1.6804-15.753-0.39509-5.7407 2.0293-12.907 5.8763-18.191 1.9024 8.916-4.7722-5.9943 1.4598-9.6074 5.3513-17.155 8.8671-14.8-5.6746-9.8547-16.572 3.9316-10.418 9.2744-28.561 15.736-28.601-14.125 13.193-25.49 29.012-38.886 42.912-7.0591 7.4131-29.978 23.976-21.897 1.5697 3.2396-9.8996 7.7092-27.311 12.555-27.614-11.301 8.2703-19.773 19.991-32.044 26.965-16.764 0.81561-10.865-5.6514-8.1599-18.186 14.666-4.0153-8.5542 7.5136-11.73 12.002-15.015 1.5545-12.335-1.2411-12.091-13.665 14.103-2.737-10.68 9.6147-15.036 7.154-0.5033-5.8175 1.5552-11.384 5.8384-16.153h4.2059z"/>
 </g>
</svg>
