<?xml version="1.0" encoding="UTF-8"?>
<svg viewBox="0 0 388.94 390.87" xmlns="http://www.w3.org/2000/svg">
 <defs>
  <linearGradient id="a" x1=".48463" x2=".48463" y1="1.0004" y2="-4.7e-5">
   <stop stop-color="#c9c9c9" offset="0"/>
   <stop stop-color="#fff" offset="1"/>
  </linearGradient>
 </defs>
 <g stroke-linecap="round" stroke-linejoin="round">
  <g stroke-width="3">
   <path d="m346.02 196.92l-151.55-151.66-151.55 151.66v179.82c0 1.745 0.3657 3.405 1.0058 4.917 0.6401 1.513 1.5379 2.879 2.6822 4.024 1.1444 1.144 2.5108 2.042 4.0234 2.682 1.5126 0.63998 3.1725 1.006 4.9174 1.006h277.84c1.745 0 3.405-0.366 4.918-1.006 1.512-0.64002 2.879-1.538 4.023-2.682 1.144-1.145 2.042-2.511 2.682-4.024 0.64002-1.512 1.006-3.172 1.006-4.917v-179.82z" fill="url(#a)"/>
   <path d="m353.17 151.1l-145.4-145.62c-1.79-1.7898-3.958-3.2036-6.258-4.1351-2.3-0.93149-4.733-1.3806-7.265-1.3411-2.434 0.034637-4.839 0.5228-7.04 1.4529-2.202 0.93012-4.201 2.3021-5.924 4.0234l-145.51 145.62v52.974l158.7-158.81 158.7 158.81v-52.974z" fill="#f2f2f2"/>
   <path d="m346.02 143.95l-138.25-138.47c-1.79-1.7898-3.958-3.2036-6.258-4.1351-2.3-0.93149-4.733-1.3806-7.265-1.3411-2.434 0.034637-4.839 0.5228-7.04 1.4529-2.202 0.93012-4.201 2.3021-5.924 4.0234l-138.36 138.47v52.974l151.55-151.66 151.55 151.66v-52.974z" fill="#b3b3b3"/>
   <path d="m55.542 25.247c-1.745 0-3.3776 0.393-4.8902 1.0331-1.5125 0.6402-2.8849 1.5074-4.0292 2.6518-1.1443 1.1442-2.046 2.5166-2.6861 4.0291-0.6401 1.5126-0.9987 3.1797-0.9987 4.9246v159.03l67.05-67.118v-91.914c0-1.7449-0.359-3.412-0.999-4.9246-0.64-1.5125-1.542-2.8849-2.686-4.0291-1.145-1.1444-2.517-2.0116-4.029-2.6518-1.513-0.6401-3.1801-1.0331-4.925-1.0331h-41.807z" fill="#a00"/>
  </g>
  <path d="m194.25 0.0024c-4.869 0.069305-9.519 2.0338-12.964 5.4762l-175.8 175.91c-7.3142 7.314-7.3142 19.173 0 26.487s19.173 7.314 26.487 0l162.5-162.61 162.5 162.61c7.315 7.314 19.173 7.314 26.487 0 7.315-7.314 7.315-19.173 0-26.487l-175.69-175.91c-3.581-3.5795-8.46-5.5552-13.523-5.4762z" fill="#4c4c4c" stroke-width="10.465"/>
 </g>
</svg>
